<svg xmlns="http://www.w3.org/2000/svg" xmlns:xlink="http://www.w3.org/1999/xlink" width="640" zoomAndPan="magnify" viewBox="0 0 480 479.999983" height="640" preserveAspectRatio="xMidYMid meet" version="1.0"><defs><g/></defs><g fill="#edd4b2" fill-opacity="1"><g transform="translate(3.478514, 280.006778)"><g><path d="M 51.953125 -233.21875 C 62.265625 -239.175781 67.90625 -242.554688 68.875 -243.359375 C 72.09375 -246.585938 75.394531 -246.425781 78.78125 -242.875 C 81.039062 -240.625 84.179688 -240.625 88.203125 -242.875 C 92.234375 -244.96875 97.226562 -244.566406 103.1875 -241.671875 C 106.894531 -239.734375 109.394531 -237.597656 110.6875 -235.265625 C 111.976562 -232.929688 113.023438 -228.539062 113.828125 -222.09375 C 115.273438 -213.226562 117.046875 -207.953125 119.140625 -206.265625 C 121.234375 -204.578125 124.535156 -205.742188 129.046875 -209.765625 C 133.078125 -213.960938 136.460938 -216.0625 139.203125 -216.0625 C 141.941406 -216.0625 145.726562 -217.671875 150.5625 -220.890625 C 158.457031 -226.203125 166.191406 -226.160156 173.765625 -220.765625 C 181.335938 -215.367188 185.125 -207.113281 185.125 -196 C 185.125 -190.03125 186.046875 -186.882812 187.890625 -186.5625 C 189.742188 -186.25 193.492188 -188.425781 199.140625 -193.09375 C 213.960938 -205.34375 225.441406 -212.515625 233.578125 -214.609375 C 241.710938 -216.703125 249.644531 -214.523438 257.375 -208.078125 L 266.8125 -199.859375 L 264.875 -177.140625 C 263.257812 -161.835938 260.035156 -149.351562 255.203125 -139.6875 C 250.367188 -129.375 247.953125 -123.367188 247.953125 -121.671875 C 247.953125 -119.984375 246.664062 -116.320312 244.09375 -110.6875 C 238.9375 -100.851562 236.921875 -86.550781 238.046875 -67.78125 C 239.171875 -49.019531 242.71875 -38.671875 248.6875 -36.734375 C 252.707031 -35.929688 258.101562 -37.460938 264.875 -41.328125 C 271.476562 -45.671875 277.359375 -47.84375 282.515625 -47.84375 C 286.703125 -47.84375 290.609375 -45.910156 294.234375 -42.046875 C 297.859375 -38.179688 298.945312 -34.71875 297.5 -31.65625 C 296.050781 -28.113281 291.257812 -24.367188 283.125 -20.421875 C 274.988281 -16.472656 266.972656 -13.9375 259.078125 -12.8125 C 253.597656 -12.164062 249.445312 -12.125 246.625 -12.6875 C 243.800781 -13.25 240.378906 -14.984375 236.359375 -17.890625 C 227.816406 -24.171875 222.132812 -31.097656 219.3125 -38.671875 C 216.5 -46.242188 215.09375 -58.003906 215.09375 -73.953125 C 215.09375 -93.285156 215.894531 -106.09375 217.5 -112.375 C 220.882812 -123.007812 223.945312 -134.289062 226.6875 -146.21875 C 229.425781 -158.132812 231.117188 -167.554688 231.765625 -174.484375 C 232.566406 -181.410156 232.242188 -185.28125 230.796875 -186.09375 C 225.160156 -186.09375 212.59375 -173.925781 193.09375 -149.59375 C 173.601562 -125.269531 162.648438 -108.03125 160.234375 -97.875 C 159.097656 -92.394531 155.144531 -81.84375 148.375 -66.21875 C 141.613281 -50.59375 134.769531 -36.332031 127.84375 -23.4375 C 124.457031 -17.15625 120.425781 -13.367188 115.75 -12.078125 C 111.082031 -10.796875 107.296875 -12.285156 104.390625 -16.546875 C 101.492188 -20.816406 100.929688 -26.578125 102.703125 -33.828125 C 103.515625 -39.472656 105.929688 -46.242188 109.953125 -54.140625 C 113.984375 -61.546875 116 -67.257812 116 -71.28125 C 116 -75.3125 117.929688 -79.90625 121.796875 -85.0625 C 126.148438 -90.382812 128.523438 -95.460938 128.921875 -100.296875 C 129.328125 -105.128906 131.144531 -109.398438 134.375 -113.109375 C 138.5625 -117.617188 144.15625 -130.707031 151.15625 -152.375 C 158.164062 -174.039062 160.785156 -186.488281 159.015625 -189.71875 C 158.210938 -191 153.820312 -189.664062 145.84375 -185.71875 C 137.875 -181.769531 133.890625 -178.867188 133.890625 -177.015625 C 133.890625 -175.171875 128.171875 -164.820312 116.734375 -145.96875 C 105.453125 -128.726562 97.472656 -113.421875 92.796875 -100.046875 C 87.960938 -87.484375 83.128906 -77.65625 78.296875 -70.5625 C 73.140625 -62.507812 70.5625 -57.515625 70.5625 -55.578125 C 70.40625 -52.359375 66.617188 -43.898438 59.203125 -30.203125 C 55.503906 -23.273438 52.445312 -17.914062 50.03125 -14.125 C 47.613281 -10.34375 45.835938 -8.210938 44.703125 -7.734375 C 41.804688 -6.285156 39.3125 -6.285156 37.21875 -7.734375 C 26.582031 -14.660156 25.289062 -25.375 33.34375 -39.875 C 38.019531 -48.414062 41.488281 -54.78125 43.75 -58.96875 C 48.414062 -67.1875 51.796875 -73.550781 53.890625 -78.0625 C 56.628906 -83.863281 59.25 -90.507812 61.75 -98 C 64.25 -105.488281 66.257812 -112.296875 67.78125 -118.421875 C 69.3125 -124.546875 71.242188 -131.390625 73.578125 -138.953125 C 75.921875 -146.523438 78.378906 -153.132812 80.953125 -158.78125 C 85.785156 -169.894531 88.601562 -177.585938 89.40625 -181.859375 C 90.21875 -186.128906 90.222656 -192.289062 89.421875 -200.34375 L 87.25 -217.75 L 76.609375 -217.015625 C 69.835938 -216.054688 64.960938 -214.242188 61.984375 -211.578125 C 59.003906 -208.921875 58.722656 -205.984375 61.140625 -202.765625 C 66.617188 -196.484375 62.992188 -186.65625 50.265625 -173.28125 C 36.253906 -158.78125 25.140625 -153.945312 16.921875 -158.78125 C 12.566406 -161.03125 10.390625 -166.425781 10.390625 -174.96875 C 10.390625 -183.507812 12.40625 -192.53125 16.4375 -202.03125 C 19.5 -208.800781 23.039062 -213.957031 27.0625 -217.5 C 31.09375 -221.050781 39.390625 -226.289062 51.953125 -233.21875 Z M 51.953125 -233.21875 "/></g></g></g><g fill="#edd4b2" fill-opacity="1"><g transform="translate(211.487541, 417.60393)"><g><path d="M 242.953125 -33.609375 C 246.804688 -36.910156 250.203125 -38.238281 253.140625 -37.59375 C 256.078125 -36.957031 257.546875 -34.160156 257.546875 -29.203125 C 257.546875 -27.734375 257.316406 -26.351562 256.859375 -25.0625 C 256.398438 -23.78125 255.710938 -22.539062 254.796875 -21.34375 C 253.878906 -20.15625 252.957031 -19.054688 252.03125 -18.046875 C 251.113281 -17.035156 249.875 -15.976562 248.3125 -14.875 C 246.757812 -13.769531 245.519531 -12.847656 244.59375 -12.109375 C 243.675781 -11.378906 242.4375 -10.507812 240.875 -9.5 C 239.320312 -8.488281 238.269531 -7.800781 237.71875 -7.4375 C 231.65625 -3.21875 225.132812 0.269531 218.15625 3.03125 C 214.300781 5.601562 208.425781 7.070312 200.53125 7.4375 C 197.957031 7.625 195.570312 7.625 193.375 7.4375 C 191.90625 7.4375 190.984375 7.4375 190.609375 7.4375 C 177.941406 7.070312 168.394531 5.097656 161.96875 1.515625 C 155.539062 -2.066406 144.335938 -11.476562 128.359375 -26.71875 C 107.796875 -46.914062 96.132812 -56.375 93.375 -55.09375 C 90.988281 -54.175781 86.992188 -49.535156 81.390625 -41.171875 C 75.796875 -32.816406 73 -27.171875 73 -24.234375 C 73 -21.484375 70.609375 -16.160156 65.828125 -8.265625 C 60.867188 -0.921875 57.566406 5.503906 55.921875 11.015625 C 54.453125 17.078125 51.554688 21.117188 47.234375 23.140625 C 42.921875 25.160156 38.789062 24.378906 34.84375 20.796875 C 30.894531 17.210938 29.054688 13.953125 29.328125 11.015625 C 29.609375 8.078125 32.6875 0.550781 38.5625 -11.5625 C 43.519531 -22.40625 45.953125 -29.476562 45.859375 -32.78125 C 45.765625 -36.082031 42.875 -37.734375 37.1875 -37.734375 C 32.59375 -37.734375 27.359375 -40.210938 21.484375 -45.171875 C 17.265625 -48.296875 14.601562 -51.097656 13.5 -53.578125 C 12.394531 -56.054688 11.84375 -59.863281 11.84375 -65 C 12.394531 -85.382812 14.78125 -99.34375 19 -106.875 C 20.84375 -110.175781 23.046875 -112.148438 25.609375 -112.796875 C 28.179688 -113.441406 34.882812 -113.394531 45.71875 -112.65625 C 61.332031 -111.550781 70.609375 -110.265625 73.546875 -108.796875 C 81.628906 -105.679688 89.800781 -110.6875 98.0625 -123.8125 C 106.320312 -136.945312 110.453125 -151.316406 110.453125 -166.921875 C 110.453125 -178.859375 109.03125 -185.285156 106.1875 -186.203125 C 103.34375 -187.117188 98.613281 -182.4375 92 -172.15625 C 86.851562 -164.445312 81.160156 -159.488281 74.921875 -157.28125 C 71.253906 -156.363281 67.125 -156.363281 62.53125 -157.28125 C 57.9375 -158.195312 53.664062 -159.847656 49.71875 -162.234375 C 45.769531 -164.628906 43.0625 -167.382812 41.59375 -170.5 C 39.570312 -174.363281 38.835938 -180.789062 39.390625 -189.78125 C 39.941406 -198.78125 41.410156 -206.40625 43.796875 -212.65625 C 46.546875 -218.707031 47.921875 -222.789062 47.921875 -224.90625 C 47.921875 -227.019531 52.421875 -233.3125 61.421875 -243.78125 C 69.867188 -253.507812 78.222656 -261.21875 86.484375 -266.90625 C 94.753906 -272.601562 104.582031 -276.644531 115.96875 -279.03125 C 122.570312 -280.5 127.804688 -280.679688 131.671875 -279.578125 C 138.097656 -277.742188 142.960938 -272.972656 146.265625 -265.265625 C 153.054688 -249.648438 154.707031 -227.519531 151.21875 -198.875 C 149.570312 -185.289062 147.644531 -177.488281 145.4375 -175.46875 C 143.78125 -173.8125 142.953125 -168.851562 142.953125 -160.59375 C 142.953125 -153.976562 140.566406 -145.617188 135.796875 -135.515625 C 130.835938 -125.421875 125.050781 -116.976562 118.4375 -110.1875 C 112.195312 -103.570312 110.546875 -98.703125 113.484375 -95.578125 C 114.398438 -95.023438 115.640625 -94.75 117.203125 -94.75 C 118.765625 -94.75 125.332031 -99.800781 136.90625 -109.90625 C 148.46875 -120.007812 160.953125 -131.757812 174.359375 -145.15625 C 186.484375 -157.28125 196.125 -168.347656 203.28125 -178.359375 C 210.445312 -188.367188 214.03125 -195.757812 214.03125 -200.53125 C 214.582031 -205.125 215.59375 -208.703125 217.0625 -211.265625 C 218.53125 -213.660156 221.695312 -214.859375 226.5625 -214.859375 C 231.425781 -214.859375 235.507812 -213.660156 238.8125 -211.265625 C 243.59375 -207.773438 243.640625 -200.289062 238.953125 -188.8125 C 234.273438 -177.34375 226.054688 -164.722656 214.296875 -150.953125 C 203.835938 -138.648438 189.238281 -123.820312 170.5 -106.46875 C 151.769531 -89.113281 140.203125 -79.515625 135.796875 -77.671875 C 130.835938 -76.203125 129.140625 -72.617188 130.703125 -66.921875 C 132.265625 -61.234375 136.8125 -54.628906 144.34375 -47.109375 C 153.882812 -38.109375 158.65625 -32.226562 158.65625 -29.46875 C 158.65625 -27.082031 160.769531 -23.960938 165 -20.109375 C 166.101562 -19.003906 167.390625 -18.082031 168.859375 -17.34375 C 170.328125 -16.613281 172.113281 -16.066406 174.21875 -15.703125 C 176.332031 -15.335938 178.210938 -15.015625 179.859375 -14.734375 C 181.515625 -14.460938 183.675781 -14.414062 186.34375 -14.59375 C 189.007812 -14.78125 191.078125 -14.921875 192.546875 -15.015625 C 194.015625 -15.109375 196.257812 -15.382812 199.28125 -15.84375 C 202.3125 -16.300781 204.238281 -16.617188 205.0625 -16.796875 C 205.894531 -16.984375 207.78125 -17.351562 210.71875 -17.90625 L 215.125 -18.734375 C 217.882812 -19.285156 220.457031 -20.019531 222.84375 -20.9375 C 225.226562 -21.851562 227.660156 -23.09375 230.140625 -24.65625 C 232.617188 -26.21875 234.640625 -27.546875 236.203125 -28.640625 C 237.765625 -29.742188 240.015625 -31.398438 242.953125 -33.609375 Z M 86.5 -204.109375 C 98.25 -215.304688 101 -224.03125 94.75 -230.28125 C 92 -233.03125 88.878906 -234.3125 85.390625 -234.125 C 81.898438 -233.945312 79.144531 -232.664062 77.125 -230.28125 C 73.820312 -226.050781 70.742188 -220.035156 67.890625 -212.234375 C 65.046875 -204.429688 64.082031 -199.519531 65 -197.5 C 67.757812 -190.15625 74.925781 -192.359375 86.5 -204.109375 Z M 52.1875 -68.453125 C 55.957031 -69.828125 59.265625 -71.707031 62.109375 -74.09375 C 64.960938 -76.476562 66.203125 -78.40625 65.828125 -79.875 C 64.910156 -82.632812 61.832031 -84.148438 56.59375 -84.421875 C 51.363281 -84.703125 47.554688 -83.648438 45.171875 -81.265625 C 43.148438 -79.242188 41.957031 -76.804688 41.59375 -73.953125 C 41.226562 -71.109375 42.238281 -69.046875 44.625 -67.765625 C 45.90625 -66.847656 48.425781 -67.078125 52.1875 -68.453125 Z M 52.1875 -68.453125 "/></g></g></g></svg>